PathFileType	4	(X/Y/Z)	/Users/itak/Documents/Research/Walk-IL/dataset/trc/00468_00167.trc
DataRate	CameraRate	NumFrames	NumMarkers	Units	OrigDataRate	OrigDataStartFrame	OrigNumFrames
100.000000	100.000000	4	53	mm	100.000000	79	637
Frame#	Time	RPSI			LPSI			L3			STRN			T10			C7			CLAV			RBAK			LBAK			LSHO			LUPA			LAEL			LAOL			LWTS			LWPS			LFRA			LIFD			LHPS			LHTS			RSHO			RUPA			RAEL			RAOL			RWTS			RWPS			RFRA			RIFD			RHTS			RHPS			RBHD			LFHD			RFHD			LBHD			LHIP			RHIP			RASI			LASI			LKNE			LTHI			LANK			LTIP			LTOE			LMT1			LMT5			LHEE			RKNE			RTHI			RANK			RTIP			RTOE			RMT1			RMT5			RHEE			
		X1	Y1	Z1	X2	Y2	Z2	X3	Y3	Z3	X4	Y4	Z4	X5	Y5	Z5	X6	Y6	Z6	X7	Y7	Z7	X8	Y8	Z8	X9	Y9	Z9	X10	Y10	Z10	X11	Y11	Z11	X12	Y12	Z12	X13	Y13	Z13	X14	Y14	Z14	X15	Y15	Z15	X16	Y16	Z16	X17	Y17	Z17	X18	Y18	Z18	X19	Y19	Z19	X20	Y20	Z20	X21	Y21	Z21	X22	Y22	Z22	X23	Y23	Z23	X24	Y24	Z24	X25	Y25	Z25	X26	Y26	Z26	X27	Y27	Z27	X28	Y28	Z28	X29	Y29	Z29	X30	Y30	Z30	X31	Y31	Z31	X32	Y32	Z32	X33	Y33	Z33	X34	Y34	Z34	X35	Y35	Z35	X36	Y36	Z36	X37	Y37	Z37	X38	Y38	Z38	X39	Y39	Z39	X40	Y40	Z40	X41	Y41	Z41	X42	Y42	Z42	X43	Y43	Z43	X44	Y44	Z44	X45	Y45	Z45	X46	Y46	Z46	X47	Y47	Z47	X48	Y48	Z48	X49	Y49	Z49	X50	Y50	Z50	X51	Y51	Z51	X52	Y52	Z52	X53	Y53	Z53	

80	0.79	-1322.8583984375	970.215087890625	-465.0812683105469	-1305.196655273438	965.787841796875	-605.309326171875	-1301.510375976562	1059.424194335938	-521.6489868164062	-1029.0380859375	1254.212158203125	-510.04931640625	-1319.34130859375	1184.071899414062	-528.393310546875	-1251.578247070312	1452.037109375	-513.5621337890625	-1064.815185546875	1366.414428710938	-516.13134765625	-1318.5302734375	1331.661254882812	-420.4447021484375	-1277.321533203125	1403.288696289062	-615.8367309570312	-1168.322998046875	1422.9287109375	-687.6968383789062	-1168.579345703125	1305.045776367188	-787.8565063476562	-1139.298217773438	1087.485107421875	-815.5841064453125	-1225.865600585938	1077.6171875	-760.2762451171875	-1070.431396484375	882.7549438476562	-764.668212890625	-1110.331176757812	869.9586791992188	-826.4505615234375	-1119.16455078125	999.3433837890625	-823.6632080078125	-1064.319213867188	725.0596313476562	-783.7181396484375	-1104.822143554688	793.3298950195312	-829.2999267578125	-1054.671997070312	798.4404907226562	-776.3465576171875	-1190.512451171875	1420.958374023438	-349.4344482421875	-1211.22265625	1362.892333984375	-273.2792663574219	-1206.5966796875	1077.482299804688	-208.4015655517578	-1258.838134765625	1060.216064453125	-248.3176422119141	-1105.0625	870.8017578125	-251.4140930175781	-1171.13671875	856.9730224609375	-192.9757080078125	-1202.9765625	1018.845336914062	-197.5147247314453	-1101.893920898438	715.0281982421875	-237.2034301757812	-1089.557495117188	774.5274658203125	-239.3573760986328	-1155.880737304688	770.8886108398438	-195.69189453125	-1156.529418945312	1648.98291015625	-417.6525573730469	-1014.303894042969	1653.96630859375	-568.7072143554688	-1019.43115234375	1652.392333984375	-437.9228820800781	-1165.24658203125	1657.0048828125	-594.8968505859375	-1162.251586914062	862.9175415039062	-709.2619018554688	-1229.089477539062	864.52099609375	-316.8089904785156	-1111.73193359375	901.295166015625	-361.8314514160156	-1070.858764648438	896.1478881835938	-618.78955078125	-1182.39501953125	446.1347351074219	-686.9830322265625	-1148.338989257812	596.8048706054688	-700.6314697265625	-1262.960083007812	43.54270553588867	-703.2734985351562	-1193.1650390625	301.9364624023438	-705.9119873046875	-1039.9921875	43.73440933227539	-606.9047241210938	-1119.555053710938	51.73105239868164	-588.7354736328125	-1107.99658203125	43.60833358764648	-702.8213500976562	-1314.621948242188	49.11104202270508	-644.804443359375	-1216.6005859375	471.1880187988281	-337.1927490234375	-1192.4072265625	730.439208984375	-297.8719177246094	-1272.257934570312	49.3845329284668	-333.438720703125	-1218.389892578125	328.4843139648438	-325.2977600097656	-1056.085327148438	47.78045272827148	-365.1203918457031	-1116.401245117188	47.35072326660156	-408.4813232421875	-1141.205810546875	50.14805603027344	-302.0840148925781	-1334.692138671875	41.04618072509766	-382.1887512207031	
81	0.8	-1322.882080078125	970.1083374023438	-465.2166748046875	-1305.251342773438	965.6775512695312	-605.3927001953125	-1301.62451171875	1059.279541015625	-521.7344970703125	-1029.217163085938	1254.235229492188	-510.3213500976562	-1319.496704101562	1183.967041015625	-528.4812622070312	-1251.87060546875	1451.94189453125	-513.6870727539062	-1065.080200195312	1366.485229492188	-516.4270629882812	-1318.715576171875	1331.52587890625	-420.547119140625	-1277.687133789062	1403.165649414062	-615.8860473632812	-1168.705810546875	1422.85498046875	-687.9420166015625	-1169.16455078125	1304.965209960938	-788.1111450195312	-1139.978515625	1087.492919921875	-816.0109252929688	-1226.340576171875	1077.584716796875	-760.4668579101562	-1071.220458984375	882.5458984375	-765.7374877929688	-1111.302490234375	869.936767578125	-827.35888671875	-1119.952758789062	999.349853515625	-824.2732543945312	-1065.237426757812	724.9133911132812	-785.0557861328125	-1105.8662109375	793.3020629882812	-830.3672485351562	-1055.617919921875	798.180908203125	-777.6111450195312	-1190.631958007812	1420.783081054688	-349.5690307617188	-1211.243041992188	1362.65673828125	-273.5093383789062	-1206.586669921875	1077.223022460938	-208.7531433105469	-1258.89404296875	1060.053955078125	-248.5698699951172	-1105.392944335938	870.3482055664062	-252.1086273193359	-1171.368530273438	856.6661376953125	-193.4195251464844	-1203.032470703125	1018.58203125	-197.8731994628906	-1102.721923828125	714.5237426757812	-237.9625091552734	-1090.197631835938	774.000244140625	-240.076416015625	-1156.296508789062	770.5353393554688	-196.2229614257812	-1157.331420898438	1648.968872070312	-417.8209533691406	-1014.896728515625	1654.26171875	-568.7063598632812	-1020.151428222656	1652.581909179688	-437.9069213867188	-1165.793579101562	1656.964477539062	-595.048095703125	-1162.311889648438	862.925048828125	-709.4063720703125	-1229.074584960938	864.5075073242188	-316.8921813964844	-1111.80126953125	901.3280029296875	-362.0015869140625	-1071.054931640625	896.113037109375	-619.0533447265625	-1182.388305664062	446.1072387695312	-687.0462036132812	-1148.39794921875	596.7802124023438	-700.7034912109375	-1262.960693359375	43.52042007446289	-703.2921142578125	-1193.150024414062	301.9026794433594	-705.9462890625	-1040.038330078125	43.75095748901367	-606.9147338867188	-1119.481201171875	51.74177932739258	-588.7063598632812	-1108.00927734375	43.61918640136719	-702.827392578125	-1314.614501953125	49.10393524169922	-644.8443603515625	-1216.503051757812	471.1861267089844	-337.2528076171875	-1192.337158203125	730.4256591796875	-297.9494934082031	-1272.2529296875	49.39287948608398	-333.4521484375	-1218.309204101562	328.4680786132812	-325.3279113769531	-1056.070434570312	47.77497482299805	-365.1129455566406	-1116.404418945312	47.34206771850586	-408.4907836914062	-1141.197387695312	50.16110992431641	-302.0997924804688	-1334.691162109375	41.04841613769531	-382.1908569335938	
82	0.8100000000000001	-1322.921508789062	970.0029907226562	-465.3665466308594	-1305.30859375	965.57080078125	-605.4891967773438	-1301.7353515625	1059.139038085938	-521.8369750976562	-1029.367309570312	1254.267944335938	-510.5903015136719	-1319.65625	1183.86669921875	-528.5632934570312	-1252.162231445312	1451.843383789062	-513.805908203125	-1065.4365234375	1366.535278320312	-516.7139282226562	-1318.899658203125	1331.403076171875	-420.64697265625	-1278.0400390625	1403.058959960938	-615.9315795898438	-1169.084106445312	1422.79052734375	-688.1759643554688	-1169.742553710938	1304.881713867188	-788.3618774414062	-1140.628051757812	1087.503173828125	-816.4154052734375	-1226.791381835938	1077.546142578125	-760.6558227539062	-1071.983154296875	882.3408203125	-766.7793579101562	-1112.224609375	869.913818359375	-828.2432250976562	-1120.706787109375	999.3585205078125	-824.8616943359375	-1066.118774414062	724.7713623046875	-786.358642578125	-1106.863525390625	793.2837524414062	-831.4033203125	-1056.490966796875	797.9386596679688	-778.8408203125	-1190.739990234375	1420.62548828125	-349.6958312988281	-1211.273071289062	1362.4326171875	-273.7225036621094	-1206.5810546875	1076.972290039062	-209.0912017822266	-1258.987548828125	1059.89306640625	-248.7524108886719	-1105.673950195312	869.9183959960938	-252.8300628662109	-1171.544311523438	856.3770751953125	-193.8620452880859	-1203.05322265625	1018.328552246094	-198.2389831542969	-1103.477661132812	714.0567016601562	-238.741455078125	-1090.78076171875	773.520263671875	-240.8248596191406	-1156.634643554688	770.2069091796875	-196.7514953613281	-1158.051391601562	1648.956298828125	-417.9824829101562	-1015.463256835938	1654.539306640625	-568.7212524414062	-1020.814270019531	1652.740478515625	-437.9256591796875	-1166.327392578125	1656.916625976562	-595.1871948242188	-1162.354248046875	862.9365844726562	-709.5480346679688	-1229.092529296875	864.4864501953125	-316.97998046875	-1111.90478515625	901.3482666015625	-362.1664123535156	-1071.2509765625	896.0750122070312	-619.2904663085938	-1182.374633789062	446.0822448730469	-687.1080322265625	-1148.445190429688	596.7591552734375	-700.7734985351562	-1262.963500976562	43.49570083618164	-703.312744140625	-1193.136840820312	301.8700256347656	-705.9815673828125	-1040.09375	43.76908874511719	-606.9240112304688	-1119.353637695312	51.76394653320312	-588.659912109375	-1108.024291992188	43.63047027587891	-702.8347778320312	-1314.610107421875	49.09052276611328	-644.890625	-1216.405395507812	471.1813049316406	-337.3134460449219	-1192.2958984375	730.4153442382812	-298.0321044921875	-1272.250122070312	49.39888000488281	-333.4658813476562	-1218.229248046875	328.4446411132812	-325.35986328125	-1056.057861328125	47.77045059204102	-365.1032409667969	-1116.40673828125	47.33502197265625	-408.50390625	-1141.189575195312	50.17509841918945	-302.1185607910156	-1334.692138671875	41.05013656616211	-382.1952819824219	
83	0.8200000000000001	-1322.979370117188	969.902587890625	-465.5285034179688	-1305.364990234375	965.4724731445312	-605.604736328125	-1301.842895507812	1059.002075195312	-521.9556884765625	-1029.487548828125	1254.306640625	-510.8541870117188	-1319.819946289062	1183.769653320312	-528.644775390625	-1252.447875976562	1451.743286132812	-513.917236328125	-1065.86474609375	1366.566650390625	-516.9920043945312	-1319.078857421875	1331.295288085938	-420.7434692382812	-1278.376586914062	1402.97216796875	-615.9779663085938	-1169.465698242188	1422.738891601562	-688.3942260742188	-1170.299072265625	1304.7998046875	-788.5966796875	-1141.2490234375	1087.512939453125	-816.7962646484375	-1227.219970703125	1077.509887695312	-760.8359375	-1072.718017578125	882.1397705078125	-767.7805786132812	-1113.1005859375	869.8944702148438	-829.0945434570312	-1121.427856445312	999.3688354492188	-825.433349609375	-1066.958374023438	724.6363525390625	-787.6192626953125	-1107.812133789062	793.2765502929688	-832.3993530273438	-1057.293090820312	797.7208251953125	-780.0299682617188	-1190.839599609375	1420.48681640625	-349.8162536621094	-1211.31494140625	1362.222778320312	-273.9135131835938	-1206.574584960938	1076.735717773438	-209.4134826660156	-1259.114135742188	1059.734375	-248.8699493408203	-1105.913208007812	869.5223999023438	-253.5822906494141	-1171.66943359375	856.107177734375	-194.3057403564453	-1203.035888671875	1018.086547851562	-198.6159515380859	-1104.163208007812	713.63134765625	-239.5263977050781	-1091.310424804688	773.0908203125	-241.5893859863281	-1156.90869140625	769.90625	-197.2635803222656	-1158.68408203125	1648.9375	-418.1320495605469	-1016.011962890625	1654.799682617188	-568.752197265625	-1021.435241699219	1652.87158203125	-437.9804992675781	-1166.851440429688	1656.866821289062	-595.316650390625	-1162.377807617188	862.951171875	-709.685302734375	-1229.147583007812	864.4583129882812	-317.0738525390625	-1112.042602539062	901.3546142578125	-362.3239135742188	-1071.435546875	896.0360107421875	-619.4934692382812	-1182.357177734375	446.0599670410156	-687.1704711914062	-1148.4775390625	596.7388305664062	-700.8421630859375	-1262.970703125	43.46696853637695	-703.3350830078125	-1193.12744140625	301.8388366699219	-706.0203247070312	-1040.157592773438	43.78814697265625	-606.9326782226562	-1119.19970703125	51.79386901855469	-588.6050415039062	-1108.0400390625	43.6412239074707	-702.8429565429688	-1314.609741210938	49.06968688964844	-644.9440307617188	-1216.303100585938	471.1729736328125	-337.3758850097656	-1192.289306640625	730.4088134765625	-298.1187133789062	-1272.249633789062	49.40310287475586	-333.4795227050781	-1218.1455078125	328.4115600585938	-325.3967895507812	-1056.049438476562	47.7677001953125	-365.092041015625	-1116.408203125	47.32951736450195	-408.5201416015625	-1141.183349609375	50.189453125	-302.1400756835938	-1334.695922851562	41.05101776123047	-382.2000732421875	
